<svg width="63" height="63" viewBox="0 0 63 63" fill="none" xmlns="http://www.w3.org/2000/svg">
<path d="M31.5 5.25C24.2629 5.25 18.375 11.1379 18.375 18.375V26.25H15.75C14.3576 26.25 13.0223 26.8031 12.0377 27.7877C11.0531 28.7723 10.5 30.1076 10.5 31.5V52.5C10.5 53.8924 11.0531 55.2277 12.0377 56.2123C13.0223 57.1969 14.3576 57.75 15.75 57.75H47.25C48.6424 57.75 49.9777 57.1969 50.9623 56.2123C51.9469 55.2277 52.5 53.8924 52.5 52.5V31.5C52.5 30.1076 51.9469 28.7723 50.9623 27.7877C49.9777 26.8031 48.6424 26.25 47.25 26.25H44.625V18.375C44.625 11.1379 38.7371 5.25 31.5 5.25ZM23.625 18.375C23.625 14.0333 27.1583 10.5 31.5 10.5C35.8417 10.5 39.375 14.0333 39.375 18.375V26.25H23.625V18.375ZM34.125 46.5229V52.5H28.875V46.5229C27.9573 45.9973 27.2203 45.206 26.7614 44.2532C26.3025 43.3004 26.1431 42.2309 26.3043 41.1857C26.4655 40.1404 26.9396 39.1686 27.6643 38.3983C28.3889 37.628 29.33 37.0954 30.3634 36.8708C31.131 36.701 31.9269 36.7058 32.6924 36.8846C33.4579 37.0635 34.1735 37.4119 34.7865 37.9041C35.3994 38.3964 35.894 39.02 36.2339 39.7289C36.5737 40.4377 36.7501 41.2139 36.75 42C36.7485 42.9181 36.5051 43.8195 36.0442 44.6136C35.5834 45.4076 34.9214 46.0662 34.125 46.5229Z" fill="black"/>
</svg>
