<svg width="38" height="36" viewBox="0 0 38 36" fill="none" xmlns="http://www.w3.org/2000/svg">
<path d="M37.641 31.5371L21.6441 1.59233C20.5102 -0.530775 17.4898 -0.530775 16.355 1.59233L0.358957 31.5371C0.112768 31.998 -0.0106594 32.5154 0.000721515 33.0388C0.0121024 33.5621 0.157903 34.0735 0.423893 34.5231C0.689882 34.9727 1.06697 35.3451 1.51835 35.6039C1.96974 35.8628 2.47999 35.9993 2.9993 36H34.996C35.5157 36.0001 36.0266 35.8642 36.4786 35.6057C36.9306 35.3472 37.3084 34.9749 37.5749 34.5251C37.8414 34.0754 37.9877 33.5637 37.9993 33.0399C38.0108 32.5162 37.8874 31.9984 37.641 31.5371ZM19 31.364C18.6287 31.364 18.2658 31.253 17.9571 31.0451C17.6483 30.8372 17.4077 30.5416 17.2657 30.1959C17.1236 29.8501 17.0864 29.4696 17.1588 29.1026C17.2313 28.7355 17.4101 28.3984 17.6726 28.1337C17.9351 27.8691 18.2696 27.6889 18.6338 27.6159C18.9979 27.5428 19.3754 27.5803 19.7184 27.7235C20.0614 27.8668 20.3546 28.1093 20.5609 28.4205C20.7671 28.7316 20.8772 29.0975 20.8772 29.4717C20.8772 29.9736 20.6795 30.4549 20.3274 30.8098C19.9754 31.1646 19.4979 31.364 19 31.364ZM21.0387 12.3327L20.4999 23.8754C20.4999 24.2769 20.3417 24.662 20.0601 24.9458C19.7784 25.2297 19.3964 25.3892 18.9981 25.3892C18.5998 25.3892 18.2178 25.2297 17.9362 24.9458C17.6546 24.662 17.4963 24.2769 17.4963 23.8754L16.9576 12.3375C16.9455 12.0617 16.9885 11.7864 17.0842 11.5278C17.18 11.2693 17.3263 11.0328 17.5147 10.8324C17.703 10.6321 17.9294 10.472 18.1804 10.3618C18.4314 10.2515 18.7018 10.1933 18.9756 10.1907H18.9953C19.271 10.1906 19.5438 10.2467 19.7973 10.3558C20.0508 10.4648 20.2798 10.6245 20.4704 10.8252C20.661 11.0259 20.8093 11.2635 20.9063 11.5236C21.0034 11.7836 21.0471 12.0608 21.0349 12.3384L21.0387 12.3327Z" fill="black"/>
</svg>
